Coordinates
version=1
nRows=8
nColumns=63
inDegrees=yes

Units are S.I. units (second, meters, Newtons, ...)
If the header above contains a line with 'inDegrees', this indicates whether rotational values are in degrees (yes) or radians (no).

endheader
time	pelvis_tilt	pelvis_list	pelvis_rotation	pelvis_tx	pelvis_ty	pelvis_tz	hip_flexion_r	hip_adduction_r	hip_rotation_r	knee_angle_r	knee_angle_r_beta	ankle_angle_r	subtalar_angle_r	mtp_angle_r	hip_flexion_l	hip_adduction_l	hip_rotation_l	knee_angle_l	knee_angle_l_beta	ankle_angle_l	subtalar_angle_l	mtp_angle_l	L5_S1_Flex_Ext	L5_S1_Lat_Bending	L5_S1_axial_rotation	L4_L5_Flex_Ext	L4_L5_Lat_Bending	L4_L5_axial_rotation	L3_L4_Flex_Ext	L3_L4_Lat_Bending	L3_L4_axial_rotation	L2_L3_Flex_Ext	L2_L3_Lat_Bending	L2_L3_axial_rotation	L1_L2_Flex_Ext	L1_L2_Lat_Bending	L1_L2_axial_rotation	L1_T12_Flex_Ext	L1_T12_Lat_Bending	L1_T12_axial_rotation	Abs_r3	Abs_r2	Abs_r1	Abs_t1	Abs_t2	neck_flexion	neck_bending	neck_rotation	arm_flex_r	arm_add_r	arm_rot_r	elbow_flex_r	pro_sup_r	wrist_flex_r	wrist_dev_r	arm_flex_l	arm_add_l	arm_rot_l	elbow_flex_l	pro_sup_l	wrist_flex_l	wrist_dev_l
      0.00800000	    -51.70711564	      0.10565696	      0.75196186	     -0.37641319	      1.11977487	      0.04740460	     88.80465149	     -4.48817025	     -0.42745178	     75.20299899	      1.31253994	      2.00347291	      2.70851522	      0.00000000	    116.70852662	     -7.23182131	      0.81029321	     92.91341638	      1.62164504	     17.46924958	      9.87951195	      0.00000000	     -0.08769138	     -0.12636274	      0.54282058	     -0.16285167	     -0.16806245	      0.57674686	     -0.14406817	     -0.30723837	      0.57674686	     -0.10022248	     -0.30723837	      0.47496800	     -0.08143022	     -0.25767891	      0.44104172	     -0.05010686	     -0.19573589	      0.40711543	     -0.62637078	     -1.42944063	      3.01900520	      0.00000000	      0.00000000	      0.00000000	      0.00000000	      0.00000001	     71.44070035	    -16.44705683	     14.32696507	     36.33189383	     64.06860386	      0.00000000	      3.31459185	     72.19138630	     -9.00745949	     18.75161305	     35.44632094	     65.52811758	      0.00000000	      3.31459185
      0.01700000	    -51.67438853	     -0.23498082	     -0.32164183	     -0.37712213	      1.11953527	      0.04884585	     90.40431099	     -3.71096357	     -0.39421660	     79.27830209	      1.38366740	      2.17674971	      2.62548049	      0.00000000	    115.02105082	     -7.80848809	      1.66115241	     88.76961320	      1.54932203	     17.93430196	      9.92507876	      0.00000000	     -0.08886716	     -0.07422575	      0.77782095	     -0.16503521	     -0.09872025	      0.82643476	     -0.14599986	     -0.18047249	      0.82643476	     -0.10156628	     -0.18047249	      0.68059333	     -0.08252205	     -0.15136115	      0.63197952	     -0.05077870	     -0.11497569	      0.58336571	     -0.63476926	     -0.83965655	      4.32600679	      0.00000000	      0.00000000	      0.00000000	      0.00000000	      0.00000001	     71.56130293	    -16.74753754	     14.16116042	     36.43691584	     63.95452905	      0.00000000	      3.33805585	     72.31642210	     -8.50634505	     18.71120952	     34.99751412	     65.45242052	      0.00000000	      3.33805585
      0.02500000	    -51.64040346	     -0.39142511	     -0.48690348	     -0.37696099	      1.11947364	      0.04893180	     90.85267619	     -3.59635874	     -0.42119780	     80.62903036	      1.40724205	      2.39147883	      2.44390691	      0.00000000	    114.29589809	     -7.87189822	      1.78410641	     87.32190556	      1.52405476	     18.08999034	     10.00091666	      0.00000000	     -0.08908677	     -0.04831235	      0.81108195	     -0.16544303	     -0.06425543	      0.86177457	     -0.14636065	     -0.11746665	      0.86177457	     -0.10181727	     -0.11746665	      0.70969671	     -0.08272597	     -0.09851855	      0.65900409	     -0.05090418	     -0.07483583	      0.60831146	     -0.63633787	     -0.54651898	      4.51099449	      0.00000000	      0.00000000	      0.00000000	      0.00000000	      0.00000001	     71.55032900	    -16.75121668	     14.09834051	     36.48761670	     63.53428561	      0.00000000	      3.40888084	     72.14775733	     -8.48277455	     18.61180556	     35.08315502	     65.03666497	      0.00000000	      3.40888084
      0.03300000	    -51.60717345	     -0.69622399	     -0.83410140	     -0.37674838	      1.11934423	      0.04926513	     91.35873517	     -3.26795919	     -0.54653990	     82.15902728	      1.43394554	      2.66534181	      2.36498957	      0.00000000	    113.50941366	     -8.07705069	      2.06191121	     85.71062045	      1.49593253	     17.95653754	      9.87488253	      0.00000000	     -0.08638526	     -0.00305609	      0.87559032	     -0.16042606	     -0.00406460	      0.93031471	     -0.14192234	     -0.00743058	      0.93031471	     -0.09872971	     -0.00743058	      0.76614153	     -0.08021735	     -0.00623198	      0.71141713	     -0.04936054	     -0.00473388	      0.65669274	     -0.61704126	     -0.03457110	      4.86977068	      0.00000000	      0.00000000	      0.00000000	      0.00000000	      0.00000001	     71.56766333	    -16.77185010	     14.11926675	     36.51938748	     63.49927172	      0.00000000	      3.41853765	     71.92967919	     -8.49362126	     18.57464549	     35.23103097	     64.99628586	      0.00000000	      3.41853765
      0.04200000	    -51.57083336	     -1.06190848	     -0.87385200	     -0.37653308	      1.11927316	      0.04891946	     91.95286814	     -3.32969930	     -0.76873338	     83.98533100	      1.46582055	      3.07985777	      2.24566928	      0.00000000	    112.48408523	     -7.92392623	      2.24661008	     83.70224209	      1.46087972	     17.99950904	      9.51254746	      0.00000000	     -0.08832342	      0.05512212	      0.87748140	     -0.16402543	      0.07331242	      0.93232399	     -0.14510655	      0.13402392	      0.93232399	     -0.10094484	      0.13402392	      0.76779623	     -0.08201713	      0.11240502	      0.71295364	     -0.05046800	      0.08538416	      0.65811105	     -0.63088538	      0.62355241	      4.88028832	      0.00000000	      0.00000000	      0.00000000	      0.00000000	      0.00000001	     71.64913997	    -16.78206678	     14.28934804	     36.58218285	     63.43845581	      0.00000000	      3.44035606	     71.61474389	     -8.55463831	     18.33764796	     35.59350144	     64.88150180	      0.00000000	      3.44035606
      0.05000000	    -51.53238143	     -1.51944596	     -1.01092135	     -0.37627774	      1.11915614	      0.04863062	     92.59713335	     -3.29133140	     -1.03323033	     85.98331343	      1.50069192	      3.65238963	      2.40116907	      0.00000000	    111.40209943	     -7.86361179	      2.47694707	     81.56995246	      1.42366424	     17.42932805	      8.86007366	      0.00000000	     -0.08794791	      0.12721820	      0.89552066	     -0.16332806	      0.16920020	      0.95149071	     -0.14448962	      0.30931832	      0.95149071	     -0.10051566	      0.30931832	      0.78358058	     -0.08166843	      0.25942335	      0.72761054	     -0.05025343	      0.19706099	      0.67164050	     -0.62820311	      1.43911769	      4.98061728	      0.00000000	      0.00000000	      0.00000000	      0.00000000	      0.00000001	     71.90915237	    -16.92184663	     15.24030301	     36.50474429	     63.09680793	      0.00000000	      3.56287015	     71.12086970	     -8.38740527	     17.07101710	     35.99105159	     64.28343057	      0.00000000	      3.56287015
      0.05800000	    -51.50713740	     -1.83504054	     -1.21780774	     -0.37604191	      1.11906869	      0.04861478	     93.37337602	     -3.19273904	     -1.16190001	     88.12145526	      1.53800954	      4.02375195	      2.36632625	      0.00000000	    110.15046052	     -7.91244455	      2.68348908	     79.23645300	      1.38293699	     17.09375061	      8.74688699	      0.00000000	     -0.08763948	      0.17892385	      0.93444224	     -0.16275529	      0.23796873	      0.99284488	     -0.14398291	      0.43503546	      0.99284488	     -0.10016317	      0.43503546	      0.81763696	     -0.08138203	      0.36486152	      0.75923432	     -0.05007720	      0.27715305	      0.70083168	     -0.62600007	      2.02402241	      5.19708738	      0.00000000	      0.00000000	      0.00000000	      0.00000000	      0.00000001	     71.98278220	    -16.93475260	     15.38166229	     36.61497415	     63.03759441	      0.00000000	      3.58224697	     70.89201563	     -8.41030708	     16.97153539	     36.17172910	     64.20036761	      0.00000000	      3.58224697
      0.06700000	    -51.48454997	     -2.10207553	     -1.36287091	     -0.37582184	      1.11896697	      0.04854142	     94.23864472	     -3.15877356	     -1.20387223	     90.38247794	      1.57747183	      4.44685426	      2.44492882	      0.00000000	    108.80315774	     -7.92886804	      2.79157868	     76.80167615	      1.34044212	     16.54620793	      8.60162608	      0.00000000	     -0.08723060	      0.22436664	      0.96514454	     -0.16199594	      0.29840763	      1.02546607	     -0.14331115	      0.54552505	      1.02546607	     -0.09969585	      0.54552505	      0.84450147	     -0.08100233	      0.45752846	      0.78417994	     -0.04984356	      0.34754393	      0.72385840	     -0.62307943	      2.53808032	      5.36784437	      0.00000000	      0.00000000	      0.00000000	      0.00000000	      0.00000001	     72.06616861	    -16.96808056	     15.61662765	     36.71793334	     62.98694637	      0.00000000	      3.60281150	     70.68332176	     -8.38970641	     16.76941198	     36.34104871	     64.09774792	      0.00000000	      3.60281150
